<?xml version="1.0" encoding="UTF-8" standalone="no"?>
<svg width="90px" height="36px" viewBox="0 0 90 36" version="1.1" xmlns="http://www.w3.org/2000/svg" xmlns:xlink="http://www.w3.org/1999/xlink" xmlns:sketch="http://www.bohemiancoding.com/sketch/ns">
    <!-- Generator: Sketch 3.3.2 (12043) - http://www.bohemiancoding.com/sketch -->
    <title>logo</title>
    <desc>Created with Sketch.</desc>
    <defs>
        <path d="M3.12564706,28.8910355 L3.12564706,35.1 L0,35.1 L0,0 L2.98905882,0 L2.85882353,11.0591922 L2.97317647,11.0591922 C3.8117689,10.3524773 4.73293616,9.74673071 5.73670588,9.24193432 C6.74047561,8.73713794 7.78870042,8.48474353 8.88141176,8.48474353 C10.0757707,8.48474353 11.1303484,8.70558864 12.0451765,9.14728547 C12.9600046,9.58898231 13.7223499,10.2199683 14.3322353,11.0402625 C14.9421207,11.8605566 15.4058808,12.8448948 15.7235294,13.9933066 C16.0411781,15.1417183 16.2,16.4352397 16.2,17.8739094 C16.2,19.4387782 15.9840022,20.8332573 15.552,22.0573885 C15.1199978,23.2815198 14.5355331,24.3226467 13.7985882,25.1808006 C13.0616434,26.0389544 12.2103578,26.68887 11.2447059,27.1305669 C10.279054,27.5722637 9.26259357,27.7931088 8.19529412,27.7931088 C7.3312898,27.7931088 6.47365132,27.603813 5.62235294,27.2252157 C4.77105457,26.8466184 3.91341608,26.3292099 3.04941176,25.6729746 L3.12564706,28.8910355 Z M2.7,23.2258065 C3.54419027,23.9483907 4.36278673,24.458063 5.15581395,24.7548387 C5.94884117,25.0516144 6.65232251,25.2 7.26627907,25.2 C8.03372477,25.2 8.74360139,25.0258082 9.39593023,24.6774194 C10.0482591,24.3290305 10.6110441,23.8387128 11.0843023,23.2064516 C11.5575605,22.5741904 11.928487,21.793553 12.197093,20.8645161 C12.465699,19.9354792 12.6,18.8903284 12.6,17.7290323 C12.6,16.696769 12.510466,15.754843 12.3313953,14.9032258 C12.1523247,14.0516086 11.8645369,13.3225837 11.4680233,12.716129 C11.0715096,12.1096744 10.5598869,11.6387114 9.93313953,11.3032258 C9.30639222,10.9677403 8.55814388,10.8 7.68837209,10.8 C6.89534487,10.8 6.09593426,11.0193526 5.29011628,11.4580645 C4.4842983,11.8967764 3.62093484,12.5290281 2.7,13.3548387 L2.7,23.2258065 Z M19.8,17.5870588 C19.8,16.0799925 20.034331,14.7397117 20.503,13.5661765 C20.971669,12.3926412 21.5986627,11.3982394 22.384,10.5829412 C23.1693373,9.76764298 24.0749949,9.1500021 25.101,8.73 C26.1270051,8.3099979 27.2099943,8.1 28.35,8.1 C29.4900057,8.1 30.5729949,8.3099979 31.599,8.73 C32.6250051,9.1500021 33.5306627,9.76764298 34.316,10.5829412 C35.1013373,11.3982394 35.728331,12.3926412 36.197,13.5661765 C36.665669,14.7397117 36.9,16.0799925 36.9,17.5870588 C36.9,19.0694192 36.665669,20.3973471 36.197,21.5708824 C35.728331,22.7444176 35.1013373,23.732643 34.316,24.5355882 C33.5306627,25.3385334 32.6250051,25.9499979 31.599,26.37 C30.5729949,26.7900021 29.4900057,27 28.35,27 C27.2099943,27 26.1270051,26.7900021 25.101,26.37 C24.0749949,25.9499979 23.1693373,25.3385334 22.384,24.5355882 C21.5986627,23.732643 20.971669,22.7444176 20.503,21.5708824 C20.034331,20.3973471 19.8,19.0694192 19.8,17.5870588 L19.8,17.5870588 Z M22.5,18.0385027 C22.5,19.1165829 22.6285701,20.0919742 22.8857143,20.9647059 C23.1428584,21.8374375 23.5092833,22.5882321 23.985,23.2171123 C24.4607167,23.8459924 25.0328538,24.3336881 25.7014286,24.6802139 C26.3700033,25.0267397 27.1028532,25.2 27.9,25.2 C28.6971468,25.2 29.4299967,25.0267397 30.0985714,24.6802139 C30.7671462,24.3336881 31.3392833,23.8459924 31.815,23.2171123 C32.2907167,22.5882321 32.6571416,21.8374375 32.9142857,20.9647059 C33.1714299,20.0919742 33.3,19.1165829 33.3,18.0385027 C33.3,16.9604224 33.1714299,15.9786141 32.9142857,15.0930481 C32.6571416,14.2074822 32.2907167,13.4438535 31.815,12.802139 C31.3392833,12.1604246 30.7671462,11.6663119 30.0985714,11.3197861 C29.4299967,10.9732603 28.6971468,10.8 27.9,10.8 C27.1028532,10.8 26.3700033,10.9732603 25.7014286,11.3197861 C25.0328538,11.6663119 24.4607167,12.1604246 23.985,12.802139 C23.5092833,13.4438535 23.1428584,14.2074822 22.8857143,15.0930481 C22.6285701,15.9786141 22.5,16.9604224 22.5,18.0385027 L22.5,18.0385027 Z M39.6,17.5870588 C39.6,16.0799925 39.8362671,14.7397117 40.3088083,13.5661765 C40.7813495,12.3926412 41.4155401,11.3982394 42.211399,10.5829412 C43.0072579,9.76764298 43.9336735,9.1500021 44.9906736,8.73 C46.0476737,8.3099979 47.1606159,8.1 48.3295337,8.1 C49.523322,8.1 50.5492185,8.31617431 51.4072539,8.74852941 C52.2652893,9.18088451 53.0051782,9.68117363 53.626943,10.2494118 L52.0974093,12.2135294 C51.5502563,11.7441153 50.9844589,11.361178 50.4,11.0647059 C49.8155411,10.7682338 49.1626979,10.62 48.4414508,10.62 C47.6207213,10.62 46.8621796,10.786763 46.1658031,11.1202941 C45.4694266,11.4538252 44.8725413,11.9294087 44.3751295,12.5470588 C43.8777177,13.164709 43.4860118,13.8997016 43.2,14.7520588 C42.9139882,15.604416 42.7709845,16.5494066 42.7709845,17.5870588 C42.7709845,18.6247111 42.9077707,19.5635252 43.1813472,20.4035294 C43.4549236,21.2435336 43.8341945,21.9661734 44.319171,22.5714706 C44.8041475,23.1767677 45.3948152,23.6461748 46.0911917,23.9797059 C46.7875682,24.313237 47.5461099,24.48 48.3668394,24.48 C49.2373101,24.48 50.0269395,24.3008841 50.7357513,23.9426471 C51.4445631,23.58441 52.0725361,23.1582378 52.6196891,22.6641176 L54,24.6652941 C53.1792705,25.3817683 52.26529,25.9499979 51.2580311,26.37 C50.2507722,26.7900021 49.2000055,27 48.1056995,27 C46.9119111,27 45.7927513,26.7900021 44.7481865,26.37 C43.7036217,25.9499979 42.8020763,25.3385334 42.0435233,24.5355882 C41.2849703,23.732643 40.6880851,22.7444176 40.2528497,21.5708824 C39.8176144,20.3973471 39.6,19.0694192 39.6,17.5870588 L39.6,17.5870588 Z M57.6,9 L60.6883721,9 L60.6883721,20.2716867 C60.6883721,22.0174786 60.9550361,23.276201 61.4883721,24.0478916 C62.0217081,24.8195822 62.883715,25.2054217 64.0744186,25.2054217 C65.017059,25.2054217 65.8480584,24.9587374 66.5674419,24.4653614 C67.2868253,23.9719855 68.0806158,23.1813307 68.9488372,22.0933735 L68.9488372,9 L72,9 L72,27.4445783 L69.4697674,27.4445783 L69.2093023,24.560241 L69.0976744,24.560241 C68.2542593,25.5722942 67.3674465,26.3819247 66.4372093,26.9891566 C65.5069721,27.5963886 64.4093087,27.9 63.144186,27.9 C61.2092927,27.9 59.8015548,27.2927772 58.9209302,26.0783133 C58.0403057,24.8638493 57.6,23.0674818 57.6,20.6891566 L57.6,9 Z M78.0417827,22.4788235 C78.8440152,23.1211797 79.6650376,23.639998 80.5048747,24.0352941 C81.3447117,24.4305902 82.3161505,24.6282353 83.4192201,24.6282353 C84.6225687,24.6282353 85.5250666,24.3564733 86.1267409,23.8129412 C86.7284153,23.269409 87.0292479,22.6023569 87.0292479,21.8117647 C87.0292479,21.3423506 86.903901,20.9347076 86.6532033,20.5888235 C86.4025057,20.2429394 86.082871,19.9402954 85.6942897,19.6808824 C85.3057084,19.4214693 84.8607267,19.1929422 84.3593315,18.9952941 C83.8579362,18.7976461 83.3565485,18.600001 82.8551532,18.4023529 C82.2033394,18.1799989 81.5515353,17.9267661 80.8997214,17.6426471 C80.2479076,17.358528 79.6650444,17.0126491 79.1511142,16.605 C78.6371841,16.1973509 78.2172718,15.7217674 77.8913649,15.1782353 C77.565458,14.6347032 77.402507,13.9800038 77.402507,13.2141176 C77.402507,12.4976435 77.5466559,11.8244149 77.8349582,11.1944118 C78.1232605,10.5644086 78.5369054,10.0208846 79.0759053,9.56382353 C79.6149052,9.10676242 80.2729766,8.74853071 81.0501393,8.48911765 C81.8273019,8.22970459 82.7047305,8.1 83.6824513,8.1 C84.8356604,8.1 85.894842,8.29764508 86.8600279,8.69294118 C87.8252137,9.08823727 88.6587709,9.56999716 89.3607242,10.1382353 L87.8941504,12.0652941 C87.2674063,11.59588 86.6156023,11.2129427 85.9387187,10.9164706 C85.2618351,10.6199985 84.5222881,10.4717647 83.7200557,10.4717647 C82.5668466,10.4717647 81.7207548,10.7311739 81.1817549,11.25 C80.642755,11.7688261 80.3732591,12.3741142 80.3732591,13.0658824 C80.3732591,13.4858845 80.4860713,13.8502926 80.7116992,14.1591176 C80.937327,14.4679427 81.2381597,14.7397047 81.6142061,14.9744118 C81.9902526,15.2091188 82.4226995,15.4191167 82.9115599,15.6044118 C83.4004203,15.7897068 83.9080754,15.9811755 84.4345404,16.1788235 C85.0863542,16.4258836 85.7444256,16.6852928 86.4087744,16.9570588 C87.0731231,17.2288249 87.668521,17.5685274 88.1949861,17.9761765 C88.7214511,18.3838256 89.153898,18.8841147 89.4923398,19.4770588 C89.8307816,20.070003 90,20.7864664 90,21.6264706 C90,22.3676508 89.855851,23.0594086 89.5675487,23.7017647 C89.2792465,24.3441209 88.8530669,24.9123505 88.2889972,25.4064706 C87.7249275,25.9005907 87.0229847,26.2897045 86.1831476,26.5738235 C85.3433106,26.8579426 84.3844065,27 83.3064067,27 C82.002779,27 80.7618443,26.7652965 79.5835655,26.2958824 C78.4052866,25.8264682 77.3774417,25.233533 76.5,24.5170588 L78.0417827,22.4788235 Z" id="path-1"></path>
    </defs>
    <g id="Page-1" stroke="none" stroke-width="1" fill="none" fill-rule="evenodd" sketch:type="MSPage">
        <g id="Artboard-1" sketch:type="MSArtboardGroup" transform="translate(-378.000000, -200.000000)">
            <g id="logo" sketch:type="MSLayerGroup" transform="translate(378.000000, 200.000000)">
                <mask id="mask-2" sketch:name="Mask" fill="white">
                    <use xlink:href="#path-1"></use>
                </mask>
                <use id="Mask" fill="#FFFFFF" sketch:type="MSShapeGroup" xlink:href="#path-1"></use>
            </g>
        </g>
    </g>
</svg>